<svg width="23" height="23" viewBox="0 0 23 23" fill="none" xmlns="http://www.w3.org/2000/svg">
<path d="M11.1562 0V3.1875M11.1562 3.1875V3.1875C15.5055 3.1875 19.0312 6.71325 19.0312 11.0625V16.5711C19.0312 16.5735 19.0324 16.5759 19.0344 16.5774L21.6217 18.5881C21.8473 18.7634 21.7233 19.125 21.4376 19.125H0.874925C0.589218 19.125 0.465244 18.7634 0.690837 18.5881L3.27815 16.5774C3.2801 16.5759 3.28125 16.5735 3.28125 16.5711V11.0625C3.28125 6.71326 6.80701 3.1875 11.1562 3.1875V3.1875Z" stroke="#2A1F20"/>
<path d="M8.25 19.25V19.25C8.25 20.7688 9.48122 22 11 22V22C12.5188 22 13.75 20.7688 13.75 19.25V19.25" stroke="#2A1F20"/>
</svg>
