<svg width="25" height="24" viewBox="0 0 25 24" fill="none" xmlns="http://www.w3.org/2000/svg">
<path d="M5.41016 3.88525H23.6036C23.7141 3.88525 23.8036 3.9748 23.8036 4.08525V10.9357C23.8036 11.0305 23.7371 11.1122 23.6444 11.1315L6.49212 14.7049" stroke="black"/>
<path d="M2.16406 20.8361C2.16406 22.0312 3.13289 23 4.328 23C5.5231 23 6.49193 22.0312 6.49193 20.8361C6.49193 19.6409 5.5231 18.6721 4.328 18.6721C3.13289 18.6721 2.16406 19.6409 2.16406 20.8361Z" stroke="black"/>
<path d="M19.4756 20.8361C19.4756 22.0312 20.4444 23 21.6395 23C22.8346 23 23.8035 22.0312 23.8035 20.8361C23.8035 19.6409 22.8346 18.6721 21.6395 18.6721C20.4444 18.6721 19.4756 19.6409 19.4756 20.8361Z" stroke="black"/>
<path d="M0 1H4.86913C4.97148 1 5.05731 1.07727 5.06803 1.17906L6.4861 14.6508C6.48984 14.6862 6.48403 14.722 6.46928 14.7545L4.81705 18.3894C4.75686 18.5218 4.85367 18.6721 4.99913 18.6721H22" stroke="black"/>
</svg>
