<svg width="27" height="24" viewBox="0 0 27 24" fill="none" xmlns="http://www.w3.org/2000/svg">
<path d="M2.41675 5.02753V23.0835H24.9709V5.02753" stroke="#2A1F20"/>
<path d="M15.3047 22.7487V9.24957C15.3047 8.69729 15.7524 8.24957 16.3047 8.24957H21.5542C22.1065 8.24957 22.5542 8.69729 22.5542 9.24957V22.7487" stroke="#2A1F20"/>
<path d="M11.8883 8.24957H5.83325C5.28097 8.24957 4.83325 8.69729 4.83325 9.24957V16.1101C4.83325 16.6624 5.28097 17.1101 5.83325 17.1101H11.8883C12.4406 17.1101 12.8883 16.6624 12.8883 16.1101V9.24957C12.8883 8.69729 12.4406 8.24957 11.8883 8.24957Z" stroke="#2A1F20"/>
<path d="M0.805664 1H23.3598M23.3598 1H26.4228C26.4272 1 26.4308 1.0036 26.4308 1.00804V3.49203C26.4308 4.34006 25.7434 5.02753 24.8953 5.02753V5.02753C24.0473 5.02753 23.3598 4.34007 23.3598 3.49203V1Z" stroke="#2A1F20"/>
<path d="M23.2087 3.49203V1.00804C23.2087 1.0036 23.2051 1 23.2006 1H20.1457C20.1413 1 20.1377 1.0036 20.1377 1.00804V3.49203C20.1377 4.34007 20.8252 5.02753 21.6732 5.02753C22.5212 5.02753 23.2087 4.34006 23.2087 3.49203Z" stroke="#2A1F20"/>
<path d="M19.9868 3.49203V1.00804C19.9868 1.0036 19.9832 1 19.9787 1H16.9238C16.9194 1 16.9158 1.0036 16.9158 1.00804V3.49203C16.9158 4.34007 17.6032 5.02753 18.4513 5.02753C19.2993 5.02753 19.9868 4.34006 19.9868 3.49203Z" stroke="#2A1F20"/>
<path d="M16.7648 3.49203V1.00804C16.7648 1.0036 16.7612 1 16.7568 1H13.7019C13.6974 1 13.6938 1.0036 13.6938 1.00804V3.49203C13.6938 4.34007 14.3813 5.02753 15.2293 5.02753C16.0774 5.02753 16.7648 4.34006 16.7648 3.49203Z" stroke="#2A1F20"/>
<path d="M13.5427 3.49203V1.00804C13.5427 1.0036 13.5391 1 13.5346 1H10.4797C10.4753 1 10.4717 1.0036 10.4717 1.00804V3.49203C10.4717 4.34007 11.1591 5.02753 12.0072 5.02753C12.8552 5.02753 13.5427 4.34006 13.5427 3.49203Z" stroke="#2A1F20"/>
<path d="M10.3207 3.49203V1.00804C10.3207 1.0036 10.3171 1 10.3127 1H7.25779C7.25336 1 7.24976 1.0036 7.24976 1.00804V3.49203C7.24976 4.34007 7.93722 5.02753 8.78525 5.02753C9.63328 5.02753 10.3207 4.34006 10.3207 3.49203Z" stroke="#2A1F20"/>
<path d="M7.09858 3.49203V1.00804C7.09858 1.0036 7.09498 1 7.09054 1H4.03563C4.03119 1 4.02759 1.0036 4.02759 1.00804V3.49203C4.02759 4.34007 4.71505 5.02753 5.56308 5.02753C6.41111 5.02753 7.09858 4.34006 7.09858 3.49203Z" stroke="#2A1F20"/>
<path d="M3.87666 3.49203V1.00804C3.87666 1.0036 3.87306 1 3.86862 1H0.813703C0.809263 1 0.805664 1.0036 0.805664 1.00804V3.49203C0.805664 4.34007 1.49313 5.02753 2.34116 5.02753C3.18919 5.02753 3.87666 4.34006 3.87666 3.49203Z" stroke="#2A1F20"/>
</svg>
