<svg width="27" height="19" viewBox="0 0 27 19" fill="none" xmlns="http://www.w3.org/2000/svg">
<path d="M3.60417 15.0625H2C1.44772 15.0625 1 14.6148 1 14.0625V2C1 1.44772 1.44771 1 2 1H16.6667C17.219 1 17.6667 1.44771 17.6667 2V14.0625C17.6667 14.6148 17.219 15.0625 16.6667 15.0625H8.8125" stroke="#2A1F20"/>
<path d="M17.6667 3.60419H21.6102C22.0518 3.60419 22.4411 3.89386 22.568 4.31684L23.9167 8.81252" stroke="#2A1F20"/>
<path d="M17.6667 8.8125H25.0001C25.5524 8.8125 26.0001 9.26022 26.0001 9.8125V14.0625C26.0001 14.6148 25.5524 15.0625 25.0001 15.0625H23.3959" stroke="#2A1F20"/>
<path d="M20.7917 12.4583C22.2299 12.4583 23.3958 13.6242 23.3958 15.0625C23.3958 16.5007 22.2299 17.6666 20.7917 17.6666C19.3534 17.6666 18.1875 16.5007 18.1875 15.0625C18.1875 13.6242 19.3534 12.4583 20.7917 12.4583Z" stroke="#2A1F20"/>
<path d="M6.20842 12.4583C7.64666 12.4583 8.81258 13.6242 8.81258 15.0625C8.81258 16.5007 7.64666 17.6666 6.20842 17.6666C4.77017 17.6666 3.60425 16.5007 3.60425 15.0625C3.60425 13.6242 4.77017 12.4583 6.20842 12.4583Z" stroke="#2A1F20"/>
</svg>
