<svg width="27" height="23" viewBox="0 0 27 23" fill="none" xmlns="http://www.w3.org/2000/svg">
<path d="M19.1328 0C16.5366 0 14.2987 1.23395 13.0781 3.27801C11.8575 1.23395 9.61969 0 7.02344 0C5.16139 0.00224323 3.37626 0.742931 2.05959 2.05959C0.742931 3.37626 0.00224323 5.16139 0 7.02344C0 10.4855 2.17969 14.1038 6.46641 17.7754C8.44569 19.4596 10.5828 20.9491 12.848 22.2231C12.9187 22.2613 12.9978 22.2813 13.0781 22.2813C13.1585 22.2813 13.2375 22.2613 13.3082 22.2231C15.5735 20.9491 17.7106 19.4596 19.6898 17.7754C23.9766 14.1038 26.1562 10.4855 26.1562 7.02344C26.154 5.16139 25.4133 3.37626 24.0967 2.05959C22.78 0.742931 20.9949 0.00224323 19.1328 0ZM13.0781 21.2423C11.3828 20.2784 0.96875 14.0554 0.96875 7.02344C0.970673 5.41822 1.60919 3.87931 2.74425 2.74425C3.87931 1.60919 5.41822 0.970673 7.02344 0.96875C9.57973 0.96875 11.7279 2.33832 12.6301 4.54223C12.6666 4.63107 12.7287 4.70705 12.8084 4.76053C12.8882 4.814 12.9821 4.84256 13.0781 4.84256C13.1742 4.84256 13.268 4.814 13.3478 4.76053C13.4276 4.70705 13.4897 4.63107 13.5262 4.54223C14.4283 2.33832 16.5765 0.96875 19.1328 0.96875C20.738 0.970673 22.2769 1.60919 23.412 2.74425C24.5471 3.87931 25.1856 5.41822 25.1875 7.02344C25.1875 14.0469 14.7734 20.2784 13.0781 21.2423Z" fill="black"/>
</svg>
