<svg width="22" height="22" viewBox="0 0 22 22" fill="none" xmlns="http://www.w3.org/2000/svg">
<path d="M1.83497 21.5L1.8294 21.4998C1.82187 21.4996 1.80851 21.499 1.79018 21.4977C1.75334 21.4951 1.69745 21.4896 1.62907 21.4782C1.48995 21.455 1.31208 21.4095 1.14027 21.3236C0.970422 21.2387 0.81578 21.1192 0.702483 20.9492C0.591273 20.7824 0.5 20.5375 0.5 20.1667C0.5 19.3784 0.908605 17.6735 2.41605 16.1661C3.90885 14.6733 6.52211 13.3333 11 13.3333C15.4779 13.3333 18.0912 14.6733 19.5839 16.1661C21.0914 17.6735 21.5 19.3784 21.5 20.1667C21.5 20.5375 21.4087 20.7824 21.2975 20.9492C21.1842 21.1192 21.0296 21.2387 20.8597 21.3236C20.6879 21.4095 20.5101 21.455 20.3709 21.4782C20.3025 21.4896 20.2467 21.4951 20.2098 21.4977C20.1915 21.499 20.1781 21.4996 20.1706 21.4998L20.165 21.5L20.1658 21.5H20.1642H1.83578H1.83423L1.83497 21.5ZM1.83597 21.5C1.83643 21.5 1.83649 21.5 1.83614 21.5H1.83597ZM20.164 21.5H20.1639C20.1635 21.5 20.1636 21.5 20.164 21.5ZM14.5355 9.03553C13.5979 9.97322 12.3261 10.5 11 10.5C9.67392 10.5 8.40215 9.97322 7.46447 9.03553C6.52678 8.09785 6 6.82608 6 5.5C6 4.17392 6.52678 2.90215 7.46447 1.96447C8.40215 1.02678 9.67392 0.5 11 0.5C12.3261 0.5 13.5979 1.02678 14.5355 1.96447C15.4732 2.90215 16 4.17392 16 5.5C16 6.82608 15.4732 8.09785 14.5355 9.03553Z" stroke="#2A1F20"/>
</svg>
